<svg width="1091" height="576" viewBox="0 0 1091 576" fill="none" xmlns="http://www.w3.org/2000/svg">
<rect x="2.5" y="2.5" width="1086" height="571" fill="#CEC9EB" stroke="black" stroke-width="5"/>
<rect x="5" y="5" width="1081" height="68" fill="#8E5BC1"/>
<circle cx="60.5" cy="34.5" r="6.5" fill="#B90A0A"/>
<circle cx="82.5" cy="34.5" r="6.5" fill="#EFCA06"/>
<circle cx="104.5" cy="34.5" r="6.5" fill="#00AA25"/>
<rect x="218" y="24" width="692" height="26" rx="5" fill="#FEFFF1"/>
<rect x="240" y="378" width="588" height="52" rx="7" fill="#5100B9" fill-opacity="0.19" stroke="black" stroke-width="4"/>
<rect x="792" y="391" width="25" height="25" rx="7" fill="#0400C8"/>
<rect x="792" y="391" width="25" height="25" rx="7" stroke="black"/>
<rect x="761" y="391" width="25" height="25" rx="7" fill="#0400C8" fill-opacity="0.75"/>
<rect x="761" y="391" width="25" height="25" rx="7" stroke="black"/>
<rect x="730" y="391" width="25" height="25" rx="7" fill="#0400C8" fill-opacity="0.59"/>
<rect x="730" y="391" width="25" height="25" rx="7" stroke="black"/>
<rect x="699" y="391" width="25" height="25" rx="7" fill="#0400C8" fill-opacity="0.46"/>
<rect x="699" y="391" width="25" height="25" rx="7" stroke="black"/>
<rect x="668" y="391" width="25" height="25" rx="7" fill="#0400C8" fill-opacity="0.34"/>
<rect x="668" y="391" width="25" height="25" rx="7" stroke="black"/>
<rect x="637" y="391" width="25" height="25" rx="7" fill="#0400C8" fill-opacity="0.2"/>
<rect x="637" y="391" width="25" height="25" rx="7" stroke="black"/>
<rect x="606" y="391" width="25" height="25" rx="7" fill="#0400C8" fill-opacity="0.13"/>
<rect x="606" y="391" width="25" height="25" rx="7" stroke="black"/>
</svg>
